<?xml version="1.0" encoding="UTF-8" standalone="no"?>
<!DOCTYPE svg PUBLIC "-//W3C//DTD SVG 1.1//EN"
 "http://www.w3.org/Graphics/SVG/1.1/DTD/svg11.dtd">
<!-- Generated by graphviz version 2.39.20160302.1709 (20160302.1709)
 -->
<!-- Title: g Pages: 1 -->
<svg width="1622pt" height="1252pt"
 viewBox="0.00 0.00 1622.00 1252.00" xmlns="http://www.w3.org/2000/svg" xmlns:xlink="http://www.w3.org/1999/xlink">
<g id="graph0" class="graph" transform="scale(1 1) rotate(0) translate(4 1248)">
<title>g</title>
<polygon fill="white" stroke="transparent" points="-4,4 -4,-1248 1618,-1248 1618,4 -4,4"/>
<g id="clust1" class="cluster">
<title>cluster_Login</title>
<polygon fill="lightblue" stroke="black" points="8,-1033 8,-1236 194,-1236 194,-1033 8,-1033"/>
<text text-anchor="middle" x="101" y="-1220.8" font-family="Roboto" font-size="14.00">Login</text>
</g>
<g id="clust2" class="cluster">
<title>cluster_LoginTab</title>
<polygon fill="white" stroke="black" points="16,-1041 16,-1205 186,-1205 186,-1041 16,-1041"/>
</g>
<g id="clust3" class="cluster">
<title>cluster_Control</title>
<polygon fill="lightblue" stroke="black" points="202,-875 202,-1170 593,-1170 593,-875 202,-875"/>
<text text-anchor="middle" x="397.5" y="-1154.8" font-family="Roboto" font-size="14.00">Control</text>
</g>
<g id="clust4" class="cluster">
<title>cluster_Records</title>
<polygon fill="white" stroke="black" points="210,-897 210,-1125 391,-1125 391,-897 210,-897"/>
</g>
<g id="clust5" class="cluster">
<title>cluster_Search</title>
<polygon fill="white" stroke="black" points="411,-883 411,-1139 585,-1139 585,-883 411,-883"/>
</g>
<g id="clust6" class="cluster">
<title>cluster_Burial</title>
<polygon fill="lightblue" stroke="black" points="601,-8 601,-961 1606,-961 1606,-8 601,-8"/>
<text text-anchor="middle" x="1103.5" y="-945.8" font-family="Roboto" font-size="14.00">Burial Record</text>
</g>
<g id="clust7" class="cluster">
<title>cluster_BurialGeneral</title>
<polygon fill="white" stroke="black" points="609,-16 609,-930 789,-930 789,-16 609,-16"/>
</g>
<g id="clust8" class="cluster">
<title>cluster_BurialDimensions</title>
<polygon fill="white" stroke="black" points="809,-134 809,-930 998,-930 998,-134 809,-134"/>
</g>
<g id="clust9" class="cluster">
<title>cluster_BurialMaterial</title>
<polygon fill="white" stroke="black" points="1018,-543 1018,-930 1198,-930 1198,-543 1018,-543"/>
</g>
<g id="clust10" class="cluster">
<title>cluster_BurialCRM</title>
<polygon fill="white" stroke="black" points="1218,-18 1218,-930 1398,-930 1398,-18 1218,-18"/>
</g>
<g id="clust11" class="cluster">
<title>cluster_BurialMap</title>
<polygon fill="white" stroke="black" points="1418,-616 1418,-930 1598,-930 1598,-616 1418,-616"/>
</g>
<!-- structLabelLoginTab -->
<g id="node1" class="node">
<title>structLabelLoginTab</title>
<polyline fill="none" stroke="black" stroke-width="3" points="28.5,-1165.5 73.5,-1165.5 "/>
<text text-anchor="start" x="35" y="-1175.4" font-family="Roboto" font-size="12.00">Login</text>
<polygon fill="none" stroke="black" points="26,-1163.5 26,-1194.5 176,-1194.5 176,-1163.5 26,-1163.5"/>
</g>
<!-- structLogin -->
<g id="node2" class="node">
<title>structLogin</title>
<image xlink:href="userList.svg" width="150px" height="90px" preserveAspectRatio="xMinYMin meet" x="26" y="-1141"/>
</g>
<!-- structLabelRecords -->
<g id="node3" class="node">
<title>structLabelRecords</title>
<polyline fill="none" stroke="black" stroke-width="3" points="226,-1082.5 288,-1082.5 "/>
<text text-anchor="start" x="232.5" y="-1092.4" font-family="Roboto" font-size="12.00">Records</text>
<polyline fill="none" stroke="black" points="294.5,-1081 318.5,-1081 "/>
<text text-anchor="start" x="300.5" y="-1092.4" font-family="Roboto" font-size="12.00">...</text>
<polygon fill="none" stroke="black" points="218,-1075.5 218,-1116.5 383,-1116.5 383,-1075.5 218,-1075.5"/>
</g>
<!-- structLogin&#45;&gt;structLabelRecords -->
<g id="edge3" class="edge">
<title>structLogin:userlist&#45;&gt;structLabelRecords</title>
<path fill="none" stroke="black" d="M178.132,-1096C187.816,-1096 197.8,-1096 207.693,-1096"/>
<polygon fill="black" stroke="black" points="207.953,-1099.5 217.953,-1096 207.953,-1092.5 207.953,-1099.5"/>
</g>
<!-- structLabelSearch -->
<g id="node5" class="node">
<title>structLabelSearch</title>
<polyline fill="none" stroke="black" points="429,-1095 453,-1095 "/>
<text text-anchor="start" x="435" y="-1106.4" font-family="Roboto" font-size="12.00">...</text>
<polyline fill="none" stroke="black" stroke-width="3" points="459.5,-1096.5 513.5,-1096.5 "/>
<text text-anchor="start" x="466" y="-1106.4" font-family="Roboto" font-size="12.00">Search</text>
<polygon fill="none" stroke="black" points="423,-1089.5 423,-1130.5 573,-1130.5 573,-1089.5 423,-1089.5"/>
</g>
<!-- structLabelRecords&#45;&gt;structLabelSearch -->
<g id="edge1" class="edge">
<title>structLabelRecords&#45;&gt;structLabelSearch</title>
<path fill="none" stroke="black" d="M383.113,-1101.86C392.92,-1102.55 402.945,-1103.26 412.786,-1103.96"/>
<polygon fill="black" stroke="black" points="412.737,-1107.46 422.96,-1104.68 413.232,-1100.48 412.737,-1107.46"/>
</g>
<!-- structRecords -->
<g id="node4" class="node">
<title>structRecords</title>
<image xlink:href="takeFeatureButton.svg" width="150px" height="30px" preserveAspectRatio="xMinYMin meet" x="225.5" y="-1050"/>
<image xlink:href="startingBurialID.svg" width="150px" height="30px" preserveAspectRatio="xMinYMin meet" x="225.5" y="-1011"/>
<image xlink:href="gpsDiagnostics.svg" width="150px" height="60px" preserveAspectRatio="xMinYMin meet" x="225.5" y="-972"/>
</g>
<!-- structLabelBurialGeneral -->
<g id="node8" class="node">
<title>structLabelBurialGeneral</title>
<polyline fill="none" stroke="black" stroke-width="3" points="631.5,-887.5 689.5,-887.5 "/>
<text text-anchor="start" x="638" y="-897.4" font-family="Roboto" font-size="12.00">General</text>
<polyline fill="none" stroke="black" points="696,-886 720,-886 "/>
<text text-anchor="start" x="702" y="-897.4" font-family="Roboto" font-size="12.00">...</text>
<polygon fill="none" stroke="black" points="624,-880.5 624,-921.5 774,-921.5 774,-880.5 624,-880.5"/>
</g>
<!-- structRecords&#45;&gt;structLabelBurialGeneral -->
<g id="edge2" class="edge">
<title>structRecords:takeFeature&#45;&gt;structLabelBurialGeneral</title>
<path fill="none" stroke="black" d="M377.5,-1035C448.414,-1035 355.843,-923.57 411,-879 441.174,-854.618 540.075,-867.745 613.607,-881.947"/>
<polygon fill="black" stroke="black" points="613.317,-885.457 623.804,-883.954 614.669,-878.588 613.317,-885.457"/>
</g>
<!-- structSearch -->
<g id="node6" class="node">
<title>structSearch</title>
<image xlink:href="searchTerm.svg" width="75px" height="30px" preserveAspectRatio="xMinYMin meet" x="421" y="-1069"/>
<image xlink:href="search.svg" width="75px" height="30px" preserveAspectRatio="xMinYMin meet" x="500" y="-1069"/>
<image xlink:href="entityTypes.svg" width="75px" height="30px" preserveAspectRatio="xMinYMin meet" x="421" y="-1035"/>
<image xlink:href="selectTrench.svg" width="75px" height="30px" preserveAspectRatio="xMinYMin meet" x="500" y="-1035"/>
</g>
<!-- structSearchList -->
<g id="node7" class="node">
<title>structSearchList</title>
<image xlink:href="searchList.svg" width="150px" height="90px" preserveAspectRatio="xMinYMin meet" x="423" y="-983"/>
</g>
<!-- structSearchList&#45;&gt;structLabelBurialGeneral -->
<g id="edge4" class="edge">
<title>structSearchList&#45;&gt;structLabelBurialGeneral</title>
<path fill="none" stroke="black" d="M575.137,-923.801C587.716,-921.485 600.813,-919.074 613.577,-916.725"/>
<polygon fill="black" stroke="black" points="614.525,-920.109 623.726,-914.856 613.258,-913.225 614.525,-920.109"/>
</g>
<!-- structLabelBurialDimensions -->
<g id="node10" class="node">
<title>structLabelBurialDimensions</title>
<polyline fill="none" stroke="black" points="832.5,-886 856.5,-886 "/>
<text text-anchor="start" x="838.5" y="-897.4" font-family="Roboto" font-size="12.00">...</text>
<polyline fill="none" stroke="black" stroke-width="3" points="863,-887.5 944,-887.5 "/>
<text text-anchor="start" x="869.5" y="-897.4" font-family="Roboto" font-size="12.00">Dimensions</text>
<polyline fill="none" stroke="black" points="950.5,-886 974.5,-886 "/>
<text text-anchor="start" x="956.5" y="-897.4" font-family="Roboto" font-size="12.00">...</text>
<polygon fill="none" stroke="black" points="826.5,-880.5 826.5,-921.5 980.5,-921.5 980.5,-880.5 826.5,-880.5"/>
</g>
<!-- structLabelBurialGeneral&#45;&gt;structLabelBurialDimensions -->
<g id="edge5" class="edge">
<title>structLabelBurialGeneral&#45;&gt;structLabelBurialDimensions</title>
<path fill="none" stroke="black" d="M774.277,-901C787.932,-901 802.278,-901 816.242,-901"/>
<polygon fill="black" stroke="black" points="816.328,-904.5 826.328,-901 816.328,-897.5 816.328,-904.5"/>
</g>
<!-- structBurialGeneral -->
<g id="node9" class="node">
<title>structBurialGeneral</title>
<image xlink:href="objectID.svg" width="150px" height="30px" preserveAspectRatio="xMinYMin meet" x="624" y="-855"/>
<image xlink:href="createdAt.svg" width="150px" height="30px" preserveAspectRatio="xMinYMin meet" x="624" y="-816"/>
<image xlink:href="createdBy.svg" width="150px" height="30px" preserveAspectRatio="xMinYMin meet" x="624" y="-777"/>
<image xlink:href="type.svg" width="150px" height="30px" preserveAspectRatio="xMinYMin meet" x="624" y="-738"/>
<image xlink:href="siteSignificance.svg" width="150px" height="30px" preserveAspectRatio="xMinYMin meet" x="624" y="-699"/>
<image xlink:href="name.svg" width="150px" height="30px" preserveAspectRatio="xMinYMin meet" x="624" y="-660"/>
<image xlink:href="description.svg" width="150px" height="30px" preserveAspectRatio="xMinYMin meet" x="624" y="-621"/>
<image xlink:href="source.svg" width="150px" height="30px" preserveAspectRatio="xMinYMin meet" x="624" y="-582"/>
<image xlink:href="exists.svg" width="150px" height="75px" preserveAspectRatio="xMinYMin meet" x="624" y="-543"/>
<image xlink:href="surrounding.svg" width="150px" height="30px" preserveAspectRatio="xMinYMin meet" x="624" y="-459"/>
<image xlink:href="surface.svg" width="150px" height="30px" preserveAspectRatio="xMinYMin meet" x="624" y="-420"/>
<image xlink:href="visibility.svg" width="150px" height="30px" preserveAspectRatio="xMinYMin meet" x="624" y="-381"/>
<image xlink:href="latlong.svg" width="150px" height="123px" preserveAspectRatio="xMinYMin meet" x="624" y="-342"/>
<image xlink:href="notes.svg" width="150px" height="30px" preserveAspectRatio="xMinYMin meet" x="624" y="-210"/>
<image xlink:href="takeShape.svg" width="150px" height="30px" preserveAspectRatio="xMinYMin meet" x="624" y="-171"/>
<image xlink:href="generalPhoto.svg" width="150px" height="63px" preserveAspectRatio="xMinYMin meet" x="624" y="-132"/>
<image xlink:href="takePhoto.svg" width="150px" height="30px" preserveAspectRatio="xMinYMin meet" x="624" y="-60"/>
</g>
<!-- structLabelBurialMaterial -->
<g id="node14" class="node">
<title>structLabelBurialMaterial</title>
<polyline fill="none" stroke="black" points="1039,-886 1063,-886 "/>
<text text-anchor="start" x="1045" y="-897.4" font-family="Roboto" font-size="12.00">...</text>
<polyline fill="none" stroke="black" stroke-width="3" points="1069.5,-887.5 1127.5,-887.5 "/>
<text text-anchor="start" x="1076" y="-897.4" font-family="Roboto" font-size="12.00">Material</text>
<polyline fill="none" stroke="black" points="1134,-886 1158,-886 "/>
<text text-anchor="start" x="1140" y="-897.4" font-family="Roboto" font-size="12.00">...</text>
<polygon fill="none" stroke="black" points="1033,-880.5 1033,-921.5 1183,-921.5 1183,-880.5 1033,-880.5"/>
</g>
<!-- structLabelBurialDimensions&#45;&gt;structLabelBurialMaterial -->
<g id="edge6" class="edge">
<title>structLabelBurialDimensions&#45;&gt;structLabelBurialMaterial</title>
<path fill="none" stroke="black" d="M980.521,-901C994.279,-901 1008.69,-901 1022.66,-901"/>
<polygon fill="black" stroke="black" points="1022.74,-904.5 1032.74,-901 1022.74,-897.5 1022.74,-904.5"/>
</g>
<!-- structBurialDimensions -->
<g id="node11" class="node">
<title>structBurialDimensions</title>
<image xlink:href="profile.svg" width="150px" height="63px" preserveAspectRatio="xMinYMin meet" x="828.5" y="-855"/>
<image xlink:href="plan.svg" width="150px" height="63px" preserveAspectRatio="xMinYMin meet" x="828.5" y="-783"/>
</g>
<!-- structBurialtwocol -->
<g id="node12" class="node">
<title>structBurialtwocol</title>
<image xlink:href="lengthmax.svg" width="75px" height="30px" preserveAspectRatio="xMinYMin meet" x="824.5" y="-688"/>
<image xlink:href="lengthmin.svg" width="75px" height="30px" preserveAspectRatio="xMinYMin meet" x="908.5" y="-688"/>
<image xlink:href="widthmax.svg" width="75px" height="30px" preserveAspectRatio="xMinYMin meet" x="824.5" y="-649"/>
<image xlink:href="widthmin.svg" width="75px" height="30px" preserveAspectRatio="xMinYMin meet" x="908.5" y="-649"/>
<image xlink:href="heightmax.svg" width="75px" height="30px" preserveAspectRatio="xMinYMin meet" x="824.5" y="-610"/>
<image xlink:href="heightmin.svg" width="75px" height="30px" preserveAspectRatio="xMinYMin meet" x="908.5" y="-610"/>
<image xlink:href="areamax.svg" width="75px" height="30px" preserveAspectRatio="xMinYMin meet" x="824.5" y="-571"/>
<image xlink:href="areamin.svg" width="75px" height="30px" preserveAspectRatio="xMinYMin meet" x="908.5" y="-571"/>
</g>
<!-- structBurialRest -->
<g id="node13" class="node">
<title>structBurialRest</title>
<image xlink:href="otherdim.svg" width="150px" height="30px" preserveAspectRatio="xMinYMin meet" x="828.5" y="-509"/>
<image xlink:href="dimnotes.svg" width="150px" height="30px" preserveAspectRatio="xMinYMin meet" x="828.5" y="-470"/>
<image xlink:href="attachSketch.svg" width="150px" height="30px" preserveAspectRatio="xMinYMin meet" x="828.5" y="-431"/>
<image xlink:href="viewSketch.svg" width="150px" height="30px" preserveAspectRatio="xMinYMin meet" x="828.5" y="-392"/>
<image xlink:href="listSketch.svg" width="150px" height="93px" preserveAspectRatio="xMinYMin meet" x="828.5" y="-353"/>
<image xlink:href="dimensionPhoto.svg" width="150px" height="63px" preserveAspectRatio="xMinYMin meet" x="828.5" y="-251"/>
<image xlink:href="takeSketchPhoto.svg" width="150px" height="30px" preserveAspectRatio="xMinYMin meet" x="828.5" y="-179"/>
</g>
<!-- structLabelBurialCRM -->
<g id="node16" class="node">
<title>structLabelBurialCRM</title>
<polyline fill="none" stroke="black" points="1239,-886 1263,-886 "/>
<text text-anchor="start" x="1245" y="-897.4" font-family="Roboto" font-size="12.00">...</text>
<polyline fill="none" stroke="black" stroke-width="3" points="1269.5,-887.5 1309.5,-887.5 "/>
<text text-anchor="start" x="1276" y="-897.4" font-family="Roboto" font-size="12.00">CRM</text>
<polyline fill="none" stroke="black" points="1316,-886 1340,-886 "/>
<text text-anchor="start" x="1322" y="-897.4" font-family="Roboto" font-size="12.00">...</text>
<polygon fill="none" stroke="black" points="1233,-880.5 1233,-921.5 1383,-921.5 1383,-880.5 1233,-880.5"/>
</g>
<!-- structLabelBurialMaterial&#45;&gt;structLabelBurialCRM -->
<g id="edge7" class="edge">
<title>structLabelBurialMaterial&#45;&gt;structLabelBurialCRM</title>
<path fill="none" stroke="black" d="M1183.04,-901C1196.03,-901 1209.61,-901 1222.84,-901"/>
<polygon fill="black" stroke="black" points="1222.87,-904.5 1232.87,-901 1222.87,-897.5 1222.87,-904.5"/>
</g>
<!-- structBurialMaterial -->
<g id="node15" class="node">
<title>structBurialMaterial</title>
<image xlink:href="featurePresent.svg" width="150px" height="30px" preserveAspectRatio="xMinYMin meet" x="1033" y="-855"/>
<image xlink:href="featureDesc.svg" width="150px" height="30px" preserveAspectRatio="xMinYMin meet" x="1033" y="-816"/>
<image xlink:href="surfaceDense.svg" width="150px" height="30px" preserveAspectRatio="xMinYMin meet" x="1033" y="-777"/>
<image xlink:href="surfaceDesc.svg" width="150px" height="30px" preserveAspectRatio="xMinYMin meet" x="1033" y="-738"/>
<image xlink:href="sampleColl.svg" width="150px" height="30px" preserveAspectRatio="xMinYMin meet" x="1033" y="-699"/>
<image xlink:href="materialPhoto.svg" width="150px" height="63px" preserveAspectRatio="xMinYMin meet" x="1033" y="-660"/>
<image xlink:href="takematerialPhoto.svg" width="150px" height="30px" preserveAspectRatio="xMinYMin meet" x="1033" y="-588"/>
</g>
<!-- structLabelBurialMap -->
<g id="node18" class="node">
<title>structLabelBurialMap</title>
<polyline fill="none" stroke="black" points="1439,-886 1463,-886 "/>
<text text-anchor="start" x="1445" y="-897.4" font-family="Roboto" font-size="12.00">...</text>
<polyline fill="none" stroke="black" stroke-width="3" points="1469.5,-887.5 1507.5,-887.5 "/>
<text text-anchor="start" x="1476" y="-897.4" font-family="Roboto" font-size="12.00">Map</text>
<polygon fill="none" stroke="black" points="1433,-880.5 1433,-921.5 1583,-921.5 1583,-880.5 1433,-880.5"/>
</g>
<!-- structLabelBurialCRM&#45;&gt;structLabelBurialMap -->
<g id="edge8" class="edge">
<title>structLabelBurialCRM&#45;&gt;structLabelBurialMap</title>
<path fill="none" stroke="black" d="M1383.04,-901C1396.03,-901 1409.61,-901 1422.84,-901"/>
<polygon fill="black" stroke="black" points="1422.87,-904.5 1432.87,-901 1422.87,-897.5 1422.87,-904.5"/>
</g>
<!-- structBurialCRM -->
<g id="node17" class="node">
<title>structBurialCRM</title>
<image xlink:href="disturbanceKind.svg" width="150px" height="30px" preserveAspectRatio="xMinYMin meet" x="1233" y="-855"/>
<image xlink:href="disturbanceFactors.svg" width="150px" height="75px" preserveAspectRatio="xMinYMin meet" x="1233" y="-816"/>
<image xlink:href="principalFactors.svg" width="150px" height="30px" preserveAspectRatio="xMinYMin meet" x="1233" y="-732"/>
<image xlink:href="ageOfDamage.svg" width="150px" height="75px" preserveAspectRatio="xMinYMin meet" x="1233" y="-693"/>
<image xlink:href="disturbanceDesc.svg" width="150px" height="30px" preserveAspectRatio="xMinYMin meet" x="1233" y="-609"/>
<image xlink:href="RTKind.svg" width="150px" height="75px" preserveAspectRatio="xMinYMin meet" x="1233" y="-570"/>
<image xlink:href="RTMethod.svg" width="150px" height="75px" preserveAspectRatio="xMinYMin meet" x="1233" y="-486"/>
<image xlink:href="RTFrequency.svg" width="150px" height="63px" preserveAspectRatio="xMinYMin meet" x="1233" y="-402"/>
<image xlink:href="RTDesc.svg" width="150px" height="30px" preserveAspectRatio="xMinYMin meet" x="1233" y="-330"/>
<image xlink:href="VolumeofsoilremovedviaRT.svg" width="150px" height="30px" preserveAspectRatio="xMinYMin meet" x="1233" y="-291"/>
<image xlink:href="Affect.svg" width="150px" height="30px" preserveAspectRatio="xMinYMin meet" x="1233" y="-252"/>
<image xlink:href="Impact.svg" width="150px" height="30px" preserveAspectRatio="xMinYMin meet" x="1233" y="-213"/>
<image xlink:href="CommentsandRecommendations.svg" width="150px" height="30px" preserveAspectRatio="xMinYMin meet" x="1233" y="-174"/>
<image xlink:href="CRMPhoto.svg" width="150px" height="63px" preserveAspectRatio="xMinYMin meet" x="1233" y="-135"/>
<image xlink:href="takeCRMPhoto.svg" width="150px" height="30px" preserveAspectRatio="xMinYMin meet" x="1233" y="-63"/>
</g>
<!-- structBurialMap -->
<g id="node19" class="node">
<title>structBurialMap</title>
<image xlink:href="map1.svg" width="150px" height="225px" preserveAspectRatio="xMinYMin meet" x="1433" y="-855"/>
</g>
</g>
</svg>
